<svg width="25" height="25" viewBox="0 0 25 25" fill="none" xmlns="http://www.w3.org/2000/svg"><path d="M19.205 3.013h-14c-1.414 0-2.121 0-2.56.412-.44.412-.44 1.075-.44 2.402v.69c0 1.038 0 1.557.26 1.987.26.43.733.697 1.682 1.231l2.913 1.64c.636.358.955.537 1.182.735.475.412.767.896.9 1.49.063.285.063.618.063 1.286v2.67c0 .909 0 1.363.252 1.718.252.354.7.53 1.594.88 1.88.734 2.82 1.1 3.487.683.668-.418.668-1.372.668-3.282v-2.67c0-.667 0-1 .064-1.285a2.68 2.68 0 0 1 .897-1.49c.228-.198.546-.377 1.183-.735l2.913-1.64c.948-.534 1.423-.8 1.682-1.23.26-.431.26-.95.26-1.988v-.69c0-1.327 0-1.99-.44-2.402-.439-.412-1.146-.412-2.56-.412z" fill="#1C274C"/></svg>